<?xml version="1.0" standalone="no"?>
<!DOCTYPE svg PUBLIC "-//W3C//DTD SVG 20010904//EN"
 "http://www.w3.org/TR/2001/REC-SVG-20010904/DTD/svg10.dtd">
<svg version="1.0" xmlns="http://www.w3.org/2000/svg"
 width="381.000000pt" height="285.000000pt" viewBox="0 0 381.000000 285.000000"
 preserveAspectRatio="xMidYMid meet">

<g transform="translate(0.000000,285.000000) scale(0.100000,-0.100000)"
fill="#000000" stroke="none">
<path d="M0 2129 l0 -720 26 -45 c21 -36 24 -47 14 -59 -7 -8 -19 -15 -26 -15
-12 0 -14 -61 -12 -382 l3 -383 92 2 c91 2 93 2 93 -21 0 -20 -5 -23 -37 -23
-54 1 -68 -26 -29 -58 20 -16 27 -28 22 -40 -5 -15 -16 -17 -76 -13 l-70 5 0
-188 0 -189 143 0 c79 0 147 3 150 7 4 3 3 11 -2 17 -16 21 -22 64 -8 69 9 3
9 7 0 19 -7 8 -15 47 -17 86 -3 55 -9 76 -25 94 -26 28 -22 56 17 113 18 26
41 44 67 53 22 8 69 26 105 40 57 21 75 24 146 19 45 -3 85 -2 90 2 5 5 18 5
29 1 17 -7 16 -9 -10 -9 -68 -2 48 -41 121 -41 43 0 132 -50 184 -105 19 -20
53 -46 75 -57 22 -11 54 -31 71 -44 31 -23 130 -163 161 -230 l17 -34 237 0
237 0 6 24 c3 13 18 32 33 41 l28 18 -19 -21 c-15 -17 -16 -22 -5 -22 8 0 21
6 28 13 10 10 11 9 6 -3 -3 -9 -20 -22 -38 -29 -18 -7 -27 -15 -19 -18 7 -3
19 0 26 6 10 8 15 8 18 1 2 -7 126 -9 393 -7 225 1 381 6 368 11 -23 9 -66 71
-66 96 0 8 -8 26 -19 39 -10 13 -18 36 -18 52 0 38 -9 59 -26 59 -8 0 -14 3
-14 8 0 4 -19 8 -43 9 -23 2 -61 5 -85 7 -23 2 -45 0 -47 -4 -3 -5 -19 -2 -35
7 -25 12 -29 19 -24 36 8 29 32 47 61 47 12 0 48 12 80 27 50 24 70 28 153 28
88 0 100 -2 160 -33 36 -19 76 -44 88 -55 52 -48 102 -186 102 -281 l0 -56 80
0 80 0 0 30 c0 20 -9 40 -26 56 -20 21 -24 32 -19 55 4 16 10 29 15 29 8 0 30
53 30 72 0 5 -13 21 -29 36 -28 26 -30 31 -32 123 -3 87 -1 98 19 119 17 18
22 36 22 77 0 40 -3 51 -14 47 -33 -13 -59 53 -37 94 8 15 4 17 -35 13 -49 -3
-53 -10 -24 -36 33 -30 23 -38 -13 -11 -19 15 -39 26 -46 26 -7 0 -31 9 -53
20 -23 11 -51 20 -63 20 -45 0 -59 44 -25 75 29 27 25 35 -20 35 -37 0 -39 -1
-28 -20 16 -26 7 -33 -28 -20 -23 9 -25 13 -14 20 12 8 12 10 -3 10 -10 0 -16
4 -12 9 8 14 -33 34 -74 37 -32 2 -55 20 -45 35 2 4 19 3 37 -2 17 -5 48 -9
67 -9 l35 1 -25 20 c-14 11 -33 26 -42 34 -11 9 -29 12 -48 9 -19 -4 -30 -2
-30 5 0 6 6 11 13 12 111 9 123 13 94 33 -9 7 -17 18 -17 24 0 20 -21 24 -38
8 -12 -10 -22 -12 -32 -6 -24 15 -3 23 72 29 67 6 70 7 45 18 -33 15 -38 58
-7 68 22 7 144 -31 159 -49 17 -20 15 -118 -3 -164 -16 -42 -16 -45 4 -77 11
-18 20 -40 20 -50 0 -21 28 -44 53 -45 28 0 51 28 62 77 6 24 13 44 18 44 4
-1 15 -1 26 -1 10 0 31 -16 46 -36 26 -34 26 -36 10 -54 -17 -19 -17 -21 6
-54 13 -19 27 -32 32 -29 4 3 20 2 34 -2 22 -5 24 -9 18 -38 -3 -18 -9 -67
-12 -110 -6 -86 3 -107 40 -100 18 4 30 -4 50 -31 15 -19 27 -38 27 -41 0 -4
9 -18 20 -32 11 -14 20 -32 20 -40 0 -8 7 -30 16 -48 23 -49 15 -86 -20 -98
-25 -8 -31 -6 -50 17 -11 14 -35 30 -53 35 -43 12 -58 -6 -49 -57 4 -20 7 -76
6 -125 l-1 -87 90 0 c67 0 91 3 91 13 0 19 40 41 53 28 6 -6 34 -11 62 -11 28
0 77 -7 108 -15 32 -8 90 -15 130 -15 61 0 74 3 85 20 16 26 32 26 32 0 0 -16
7 -20 35 -20 l35 0 0 1425 0 1425 -1905 0 -1905 0 0 -721z m1747 409 c11 -12
16 -31 15 -57 -2 -31 2 -42 18 -51 17 -9 20 -21 20 -75 0 -51 3 -65 15 -65 8
0 15 -7 15 -15 0 -8 5 -15 10 -15 6 0 10 4 10 9 0 5 3 16 6 25 4 10 -2 17 -20
22 -14 3 -26 12 -26 20 0 18 36 54 53 54 17 0 37 -21 37 -39 0 -11 -4 -10 -14
5 -8 10 -17 17 -20 14 -9 -9 5 -50 15 -44 5 3 9 1 9 -4 0 -20 -31 -97 -46
-113 -14 -16 -14 -19 5 -38 12 -12 21 -32 21 -46 0 -23 3 -25 59 -24 74 1 163
-31 210 -74 56 -53 71 -98 71 -214 l0 -102 50 -43 c48 -42 49 -43 31 -63 -11
-12 -21 -43 -25 -77 -3 -32 -9 -82 -12 -111 -6 -52 -6 -53 33 -80 21 -15 74
-40 117 -56 43 -15 74 -31 68 -34 -12 -8 -22 -77 -11 -77 4 0 10 4 13 9 3 5
18 12 32 15 32 8 47 -9 32 -37 -8 -15 -16 -18 -44 -12 -29 5 -34 3 -34 -14 0
-11 -4 -23 -10 -26 -5 -3 -10 -1 -10 5 0 13 -39 46 -77 68 -13 6 -35 19 -50
27 -16 8 -38 15 -50 15 -33 0 -53 11 -53 29 0 9 -6 25 -14 36 -18 26 -4 65 24
65 27 0 25 24 -5 55 -26 25 -41 33 -30 15 4 -6 -13 -10 -42 -10 -97 0 -99 -1
-58 -40 31 -29 31 -41 3 -67 -21 -19 -88 -48 -88 -38 0 3 -10 1 -23 -4 -15 -6
-29 -4 -42 5 -10 8 -28 14 -39 14 -26 -1 -81 -44 -72 -58 3 -5 -1 -15 -9 -22
-23 -19 -141 44 -174 93 -14 21 -36 50 -49 65 l-23 27 6 -37 c5 -33 4 -37 -11
-31 -25 10 -12 -20 14 -32 24 -11 31 -41 7 -32 -8 4 -17 2 -20 -3 -10 -16 57
-51 87 -47 16 2 26 2 24 -1 -8 -7 80 -69 130 -91 l48 -22 -33 -29 c-18 -17
-36 -30 -42 -30 -18 0 -8 -28 16 -44 22 -15 24 -21 19 -56 -6 -38 -5 -41 24
-51 27 -9 30 -14 25 -43 -5 -29 -2 -34 25 -45 28 -12 58 -61 45 -74 -2 -3 5
-36 16 -75 19 -61 19 -73 8 -108 -17 -47 -42 -61 -124 -67 -102 -8 -124 -23
-142 -97 -6 -24 -10 -25 -91 -28 -47 -2 -118 2 -158 9 l-72 12 6 31 c4 24 1
36 -15 50 -13 12 -19 26 -15 38 3 10 1 18 -5 18 -6 0 -11 8 -11 19 0 33 -24
77 -60 108 -36 31 -60 33 -60 5 0 -20 -14 -6 -15 16 -4 50 -7 60 -25 80 -11
12 -20 24 -20 27 0 4 -9 14 -20 23 -10 10 -22 29 -26 45 -5 22 -3 26 10 21 11
-4 15 -13 11 -25 -4 -13 -1 -19 9 -19 9 0 16 3 16 8 0 14 48 30 58 20 11 -11
32 -3 32 13 0 5 -10 9 -23 9 -18 0 -26 10 -40 50 -10 28 -22 50 -27 50 -6 0
-10 7 -10 15 0 7 -7 18 -16 23 -21 12 -10 32 17 32 10 0 19 5 19 11 0 7 14 9
43 5 50 -8 107 -9 114 -2 3 2 2 13 -1 24 -5 16 -16 20 -49 21 -104 1 -138 38
-52 56 91 18 128 55 57 55 -42 0 -60 20 -66 73 -4 42 -28 62 -55 47 -19 -10
-27 -7 -57 15 -19 14 -34 32 -34 39 0 7 -9 21 -20 31 -11 10 -20 14 -20 10 0
-5 -3 -5 -7 -2 -3 4 1 13 10 20 16 11 16 14 0 46 -11 19 -35 43 -58 55 -22 12
-42 22 -45 24 -2 2 -3 21 -3 44 2 46 -11 78 -32 78 -7 0 -15 12 -17 27 -2 18
-12 32 -28 40 -36 17 -224 36 -228 23 -5 -14 -23 -13 -19 2 1 8 -9 11 -30 9
-19 -1 -33 2 -33 8 0 15 98 14 169 0 53 -11 58 -11 94 14 46 31 147 45 198 27
32 -11 44 -7 174 50 89 39 150 72 168 91 15 16 27 24 27 19 0 -27 -25 -51 -97
-96 -43 -26 -83 -55 -90 -64 -8 -9 -12 -11 -13 -3 0 9 -8 9 -31 1 l-32 -11 24
-13 c14 -7 25 -9 27 -3 3 6 8 6 16 0 8 -7 24 -7 47 -1 42 12 50 12 69 0 13 -9
13 -11 1 -19 -12 -8 -12 -13 2 -34 35 -54 173 -55 215 -2 22 28 53 32 72 10 7
-8 17 -15 22 -15 20 0 36 -26 26 -43 -10 -20 6 -24 18 -5 14 22 15 68 1 68 -8
0 -12 15 -12 43 0 37 9 55 58 122 54 73 97 174 97 226 0 10 9 23 20 29 11 6
17 16 14 25 -13 32 -21 19 -79 -122 -17 -41 -35 -57 -35 -30 0 9 -3 8 -9 -2
-16 -24 -31 -1 -31 47 0 50 -26 118 -53 141 -22 18 -23 -2 -2 -43 16 -30 11
-52 -5 -26 -8 12 -13 13 -29 3 -16 -10 -27 -8 -60 8 -23 11 -41 26 -41 34 0 8
3 14 8 14 24 -4 32 4 32 34 0 18 6 42 14 53 14 19 15 19 38 -4 14 -12 27 -20
30 -16 4 3 17 -2 30 -10 24 -15 25 -15 36 9 11 23 16 25 47 19 38 -7 50 10 15
21 -27 9 -26 25 1 18 16 -4 20 -2 17 8 -4 10 -23 14 -71 13 -37 0 -67 3 -67 8
0 4 -16 8 -36 8 -21 0 -47 8 -61 20 -30 24 -51 27 -33 5 7 -9 10 -18 6 -22 -3
-3 -7 -4 -9 -2 -1 2 -12 19 -25 37 l-23 32 27 0 c23 0 26 3 22 25 -3 13 -1 22
3 19 5 -3 9 -11 9 -19 0 -7 14 -21 32 -29 39 -20 38 -20 38 5 0 14 -5 19 -14
16 -8 -3 -20 1 -28 10 -12 15 -10 16 15 9 19 -4 27 -3 27 7 0 8 20 25 44 38
54 29 127 33 153 7z m-372 -118 c7 0 23 -9 36 -19 l24 -20 -41 6 c-61 8 -74
-10 -75 -110 -2 -78 -2 -79 -9 -32 -12 73 -12 175 0 175 6 0 10 -6 10 -12 0
-7 8 0 18 15 12 20 18 24 20 12 2 -8 9 -15 17 -15z m-115 -19 c0 -5 -7 -11
-15 -15 -15 -5 -20 5 -8 17 9 10 23 9 23 -2z m285 -51 c3 -5 1 -10 -4 -10 -6
0 -11 5 -11 10 0 6 2 10 4 10 3 0 8 -4 11 -10z m-255 -97 c-1 -18 -18 -35 -24
-24 -4 6 -4 16 -1 21 7 12 25 13 25 3z m150 -2 c0 -5 -6 -13 -13 -19 -15 -13
-42 1 -33 17 8 13 46 15 46 2z m145 -182 c-9 -13 -75 -11 -75 2 0 6 6 9 13 6
6 -2 21 -1 32 3 23 9 38 3 30 -11z m-44 -77 c55 3 63 -5 19 -20 -34 -12 -83 7
-100 38 -17 31 -11 34 11 5 19 -24 27 -26 70 -23z m99 7 c0 -11 4 -18 9 -15
18 12 19 -22 1 -61 -20 -44 -32 -55 -67 -59 -29 -3 -30 20 -3 39 11 8 17 17
14 20 -4 4 -1 13 6 22 14 17 0 21 -17 4 -6 -6 -17 -9 -25 -6 -8 3 0 10 20 17
20 8 34 21 38 36 8 29 24 32 24 3z m-310 -152 c0 -2 -10 -12 -21 -23 -22 -19
-22 -19 -10 4 10 18 31 31 31 19z m1848 -86 c2 -13 -2 -27 -9 -32 -18 -11
-227 -10 -234 2 -11 16 6 51 21 45 8 -3 24 -1 36 4 13 5 59 8 103 7 76 -2 80
-3 83 -26z m-2748 9 c0 -5 -4 -10 -10 -10 -5 0 -10 5 -10 10 0 6 5 10 10 10 6
0 10 -4 10 -10z m-65 -10 c-3 -5 -10 -10 -16 -10 -5 0 -9 5 -9 10 0 6 7 10 16
10 8 0 12 -4 9 -10z m-98 -27 c-4 -3 -30 -15 -59 -25 -28 -10 -48 -14 -42 -8
9 9 80 38 98 39 5 1 6 -2 3 -6z m552 -39 c47 -10 28 -22 -26 -17 -37 3 -45 2
-33 -7 11 -8 -18 -10 -119 -8 -92 2 -136 7 -138 15 -3 9 19 13 74 16 160 7
211 7 242 1z m1877 -7 c22 -6 39 -17 37 -22 -2 -6 18 -17 44 -24 27 -7 42 -15
35 -18 -21 -8 -113 18 -119 33 -3 8 -10 14 -17 13 -6 -1 -18 1 -27 5 -8 4 -67
10 -130 15 l-114 8 125 1 c74 1 142 -3 166 -11z m-2449 -33 c-3 -3 -12 -4 -19
-1 -8 3 -5 6 6 6 11 1 17 -2 13 -5z m-40 -10 c-3 -3 -12 -4 -19 -1 -8 3 -5 6
6 6 11 1 17 -2 13 -5z m-47 -14 c-8 -5 -19 -10 -25 -10 -5 0 -3 5 5 10 8 5 20
10 25 10 6 0 3 -5 -5 -10z m2333 -1 c-8 -8 -16 -8 -30 0 -16 9 -14 10 12 11
21 0 26 -3 18 -11z m-116 -5 c-3 -3 -12 -4 -19 -1 -8 3 -5 6 6 6 11 1 17 -2
13 -5z m371 -29 c102 -27 201 -59 236 -77 30 -15 66 -50 66 -62 0 -6 -8 -1
-18 10 -21 27 -102 69 -102 53 0 -6 -7 -3 -16 5 -8 9 -32 16 -53 16 -56 0
-142 18 -160 34 -9 7 -27 16 -41 19 -14 3 -47 13 -75 21 l-50 16 58 -5 c32 -3
101 -17 155 -30z m-2030 8 c43 -11 1 -23 -85 -23 -75 0 -112 11 -81 23 19 8
139 8 166 0z m2245 -9 c44 -22 67 -44 67 -63 0 -11 -4 -9 -16 7 -8 12 -33 31
-55 42 -21 11 -39 23 -39 25 0 8 10 6 43 -11z m233 -35 c3 -6 0 -18 -9 -26
-13 -14 -15 -13 -14 11 2 27 11 34 23 15z m-816 -13 c0 -11 -19 -15 -25 -6 -3
5 1 10 9 10 9 0 16 -2 16 -4z m310 -21 c56 -11 140 -38 140 -46 0 -22 -106
-10 -121 14 -4 5 -15 10 -25 11 -38 4 -74 18 -68 27 3 6 13 8 22 5 10 -2 33
-7 52 -11z m-1891 -11 c10 -10 -12 -16 -76 -22 -105 -10 -166 -8 -170 5 -3 7
-12 9 -21 6 -9 -3 -14 -3 -10 2 14 15 76 22 173 18 55 -3 102 -6 104 -9z m114
-23 c9 -9 6 -10 -13 -3 -14 5 -40 8 -57 7 -18 -1 -33 3 -33 8 0 13 89 2 103
-12z m1444 -27 c-3 -3 -12 -4 -19 -1 -8 3 -5 6 6 6 11 1 17 -2 13 -5z m369
-35 c66 -17 82 -24 74 -34 -12 -14 -71 -2 -99 19 -8 6 -30 16 -50 22 -61 20
-15 15 75 -7z m263 7 c15 -8 34 -23 42 -32 10 -14 6 -13 -18 4 -17 12 -36 22
-41 22 -6 0 -14 5 -17 10 -9 14 1 13 34 -4z m-2089 -112 c-8 -47 -22 -89 -29
-93 -8 -5 -25 -29 -40 -54 -67 -116 -115 -165 -148 -153 -11 4 -13 2 -9 -9 4
-12 2 -13 -13 -6 -21 12 -61 3 -61 -13 0 -7 -29 -12 -81 -14 -86 -2 -100 11
-22 22 59 8 76 18 67 39 -5 13 -19 17 -64 17 -33 0 -62 -5 -65 -10 -4 -6 -16
-8 -27 -4 -12 4 -24 1 -29 -7 -4 -7 -12 -10 -16 -5 -12 12 27 36 59 36 23 0
77 10 136 26 10 3 9 10 -3 33 -11 22 -20 28 -32 24 -11 -4 -14 -3 -9 5 4 7 16
12 27 12 23 0 25 15 4 24 -21 8 -19 43 3 49 14 4 14 6 -5 12 -26 8 -27 10 -12
56 6 19 12 40 15 46 2 10 9 10 28 1 30 -13 171 3 269 32 34 10 65 18 68 19 3
0 -2 -38 -11 -85z m2517 26 c13 -14 23 -36 24 -50 2 -56 7 -74 24 -86 18 -13
16 -17 -28 -58 -92 -89 -219 -177 -234 -163 -2 3 1 25 8 48 7 24 14 53 16 63
10 55 36 144 51 171 9 16 16 33 17 37 0 3 14 20 30 36 35 36 61 36 92 2z
m-397 -25 c20 -24 6 -28 -15 -5 -10 11 -13 20 -8 20 6 0 16 -7 23 -15z m-950
-100 c0 -9 -9 -15 -21 -15 -18 0 -19 2 -9 15 7 8 16 15 21 15 5 0 9 -7 9 -15z
m570 6 c0 -6 -4 -13 -10 -16 -5 -3 -10 1 -10 9 0 9 5 16 10 16 6 0 10 -4 10
-9z m1120 -10 c21 -40 12 -69 -32 -101 -23 -17 -51 -32 -62 -35 -99 -19 -149
-7 -131 34 6 11 42 43 80 70 78 56 126 66 145 32z m-3337 -58 c-7 -2 -13 -13
-13 -23 0 -19 -19 -30 -51 -30 -37 0 -19 45 21 53 35 6 58 7 43 0z m3095 -85
c14 -14 16 -398 3 -432 -6 -17 -9 -16 -18 10 -22 57 -43 410 -26 427 10 11 28
8 41 -5z m-1330 -23 c7 -15 12 -72 12 -130 0 -95 -2 -104 -20 -110 -26 -8 -43
-41 -36 -68 2 -12 -2 -31 -10 -41 -8 -11 -14 -30 -14 -43 0 -13 -4 -23 -8 -23
-5 0 -7 69 -5 153 4 133 7 159 29 208 13 31 24 62 24 68 0 20 17 12 28 -14z
m-1818 -80 c0 -14 -6 -25 -14 -25 -9 0 -12 8 -8 25 2 14 8 25 13 25 5 0 9 -11
9 -25z m35 5 c3 -5 1 -10 -4 -10 -6 0 -11 5 -11 10 0 6 2 10 4 10 3 0 8 -4 11
-10z m295 0 c9 -6 17 -5 22 3 5 8 8 3 8 -11 0 -13 -4 -21 -9 -17 -5 3 -11 -9
-13 -27 -3 -31 -6 -33 -46 -39 -38 -5 -45 -3 -52 15 -8 19 -9 19 -9 -6 l-1
-26 102 4 c100 4 102 4 78 -14 -35 -24 -200 -32 -200 -9 0 9 -4 17 -8 19 -8 3
-26 68 -19 68 1 0 29 11 62 25 69 28 65 28 85 15z m2698 -37 c14 -27 5 -41
-51 -77 -60 -38 -138 -54 -157 -31 -20 24 -7 47 45 87 43 33 57 38 102 38 40
0 54 -4 61 -17z m-2578 -78 c-7 -8 -17 -15 -22 -15 -11 0 14 29 26 30 5 0 3
-7 -4 -15z m70 5 c0 -12 -8 -12 -35 0 -18 8 -17 9 8 9 15 1 27 -3 27 -9z
m1673 -20 c28 -10 38 -44 15 -53 -7 -2 1 -8 17 -11 17 -4 53 -13 80 -19 28 -6
55 -17 62 -23 12 -11 1 -11 -102 0 -11 1 -34 9 -52 19 -18 9 -37 17 -44 17
-19 0 -38 33 -39 68 0 28 2 31 18 22 9 -5 29 -14 45 -20z m-2280 -17 c-7 -2
-19 -2 -25 0 -7 3 -2 5 12 5 14 0 19 -2 13 -5z m-44 -7 c-2 -2 -17 -6 -34 -10
-22 -5 -26 -4 -15 4 14 9 59 15 49 6z m2016 -16 c-3 -5 -12 -7 -20 -3 -21 7
-19 13 6 13 11 0 18 -4 14 -10z m-1541 -41 c-4 -8 0 -9 15 -4 12 4 21 2 21 -4
0 -12 -107 -15 -134 -5 -30 12 -4 24 50 24 38 0 53 -3 48 -11z m86 -7 c0 -5
-7 -9 -15 -9 -8 0 -12 4 -9 9 3 4 9 8 15 8 5 0 9 -4 9 -8z m-35 -77 c-44 -15
-143 -19 -172 -8 -28 12 27 21 127 21 84 0 84 0 45 -13z m1860 0 c46 -10 85
-26 85 -36 0 -10 -14 -12 -23 -3 -3 4 -28 8 -54 9 -26 2 -63 6 -81 10 -33 7
-33 8 -10 20 13 7 30 11 38 9 8 -2 29 -6 45 -9z m1139 -11 c3 -9 6 -35 6 -59
0 -38 -4 -47 -39 -74 -21 -17 -59 -39 -83 -50 -58 -25 -78 -53 -78 -112 0 -31
-7 -55 -20 -72 -11 -14 -20 -31 -21 -39 -1 -7 -5 -2 -9 12 -4 14 -5 49 -3 78
6 56 -1 64 -35 35 -17 -15 -21 -34 -25 -115 -5 -116 3 -137 46 -117 20 9 31 9
38 2 15 -15 -6 -53 -29 -53 -10 0 -22 -4 -28 -10 -16 -16 -102 -24 -118 -11
-8 7 -16 42 -20 89 -7 75 -3 101 28 174 6 13 1 17 -25 20 -27 2 -34 8 -41 33
-8 33 0 50 55 109 28 31 39 37 70 34 26 -1 43 4 60 20 13 12 32 22 43 22 10 1
60 23 109 50 99 54 110 58 119 34z m-830 -133 c-3 -14 -6 -51 -6 -81 l1 -55
-13 60 c-9 40 -10 66 -4 78 5 10 8 28 7 40 -1 12 2 31 7 42 7 17 10 13 12 -19
2 -22 0 -51 -4 -65z m-844 59 c0 -30 0 -30 -25 -14 -28 18 -32 30 -12 37 28
12 37 6 37 -23z m526 10 c95 -19 200 -48 179 -49 -5 0 -41 4 -80 10 -38 6 -79
12 -90 13 -41 4 -100 19 -112 28 -7 5 -17 7 -22 4 -5 -4 -12 -2 -16 4 -9 15
32 12 141 -10z m-1402 -26 c8 -31 -8 -54 -25 -37 -11 11 -2 63 11 63 4 0 11
-12 14 -26z m928 -78 c3 -27 11 -35 62 -60 43 -20 55 -30 45 -37 -19 -12 -42
-11 -34 0 3 5 1 12 -5 16 -6 3 -10 -4 -10 -17 0 -18 -11 -29 -45 -46 -25 -12
-47 -22 -48 -22 -2 0 -3 33 -2 73 0 39 -3 88 -6 109 -6 35 -5 36 17 26 15 -7
24 -21 26 -42z m-99 -38 c-20 -59 -32 -68 -23 -18 6 34 21 58 36 60 1 0 -5
-19 -13 -42z m858 -34 c-5 -16 -10 -23 -10 -15 -1 7 -7 11 -16 7 -22 -8 -18 3
8 24 27 23 29 21 18 -16z m-555 13 c4 -4 -4 -7 -19 -7 -14 0 -29 5 -32 10 -7
12 39 9 51 -3z m514 -71 c-5 -15 -10 -39 -11 -54 0 -26 0 -26 -9 -4 -5 12 -17
25 -25 29 -13 4 -9 10 14 24 17 10 31 24 31 31 0 6 2 9 5 6 3 -3 1 -17 -5 -32z
m-1505 4 c8 -13 -25 -13 -45 0 -12 8 -9 10 12 10 15 0 30 -4 33 -10z m795 -53
c0 -2 -10 -12 -21 -23 -22 -19 -22 -19 -10 4 10 18 31 31 31 19z m1554 -36 c8
-13 -3 -19 -24 -14 -11 3 -17 9 -14 14 7 11 31 12 38 0z m-1679 -61 c-3 -6 1
-13 9 -16 21 -8 21 -24 0 -24 -8 0 -13 -4 -9 -9 3 -5 1 -12 -4 -15 -5 -3 -7
-14 -5 -24 6 -20 -37 -53 -44 -33 -3 9 -7 9 -18 0 -12 -10 -13 -9 -8 5 3 9 1
16 -5 16 -6 0 -11 -8 -12 -17 0 -11 -2 -13 -6 -5 -6 16 19 57 61 98 30 31 54
44 41 24z m1177 -76 c-1 -10 -13 -46 -25 -79 l-21 -60 -7 35 c-4 19 -9 53 -11
75 -2 34 0 40 22 46 35 10 45 5 42 -17z m565 -71 c-9 -9 -17 -11 -21 -5 -3 6
2 18 11 28 12 12 18 13 21 4 2 -6 -2 -19 -11 -27z m-1877 7 c0 -5 -2 -10 -4
-10 -3 0 -8 5 -11 10 -3 6 -1 10 4 10 6 0 11 -4 11 -10z m1643 -30 c-3 -11
-13 -20 -22 -19 -10 0 -11 2 -3 6 6 2 12 11 12 19 0 8 4 14 9 14 5 0 7 -9 4
-20z m82 10 c-3 -5 -10 -10 -16 -10 -5 0 -9 5 -9 10 0 6 7 10 16 10 8 0 12 -4
9 -10z m-1830 -10 c-3 -5 -10 -10 -16 -10 -5 0 -9 5 -9 10 0 6 7 10 16 10 8 0
12 -4 9 -10z"/>
<path d="M1597 2483 c-12 -11 -8 -23 8 -23 8 0 15 7 15 15 0 16 -12 20 -23 8z"/>
<path d="M1790 2243 c0 -21 3 -24 9 -14 5 8 7 20 4 28 -8 21 -13 15 -13 -14z"/>
<path d="M1725 2100 c3 -5 8 -10 11 -10 2 0 4 5 4 10 0 6 -5 10 -11 10 -5 0
-7 -4 -4 -10z"/>
<path d="M1871 1946 l-2 -64 78 -43 c43 -23 97 -55 121 -72 64 -43 75 -34 71
62 -4 88 -19 118 -79 159 -27 18 -47 22 -110 22 l-77 0 -2 -64z"/>
<path d="M1359 1250 c25 -21 41 -26 41 -12 0 9 -44 32 -58 32 -4 -1 4 -10 17
-20z"/>
<path d="M1230 918 c0 -18 4 -39 9 -46 9 -16 91 -29 91 -16 0 10 -86 94 -95
94 -3 0 -5 -15 -5 -32z"/>
<path d="M1235 766 c4 -89 4 -90 41 -108 19 -10 39 -18 44 -18 17 0 11 38 -8
52 -9 7 -25 26 -35 41 -18 28 -18 28 3 17 26 -14 43 -3 17 11 -9 6 -17 16 -17
23 0 8 -11 16 -23 18 -22 4 -24 2 -22 -36z"/>
<path d="M1510 669 c0 -6 7 -9 15 -5 8 3 21 -2 30 -10 19 -19 41 -8 24 12 -14
17 -69 19 -69 3z"/>
<path d="M1635 1950 c-3 -5 -1 -10 4 -10 6 0 11 5 11 10 0 6 -2 10 -4 10 -3 0
-8 -4 -11 -10z"/>
<path d="M588 1333 c-23 -6 -25 -78 -3 -87 8 -3 24 -20 35 -38 14 -22 20 -27
20 -15 0 10 7 20 15 23 23 9 18 24 -9 24 -24 0 -54 26 -42 37 3 3 19 6 34 6
19 0 29 6 29 16 1 35 -28 48 -79 34z"/>
<path d="M664 1142 c3 -6 0 -12 -6 -15 -7 -2 -10 -7 -7 -11 9 -10 40 5 36 17
-2 6 -9 13 -17 15 -7 3 -10 0 -6 -6z"/>
<path d="M2527 820 c-3 -11 -2 -20 3 -20 12 0 21 28 11 35 -5 2 -11 -4 -14
-15z"/>
<path d="M2745 799 c-9 -14 -2 -20 14 -10 8 6 9 11 3 15 -6 3 -14 1 -17 -5z"/>
<path d="M625 270 c-6 -10 6 -50 15 -50 11 0 40 29 40 40 0 10 -49 20 -55 10z"/>
<path d="M607 38 c-4 -13 -3 -26 2 -31 4 -4 54 -6 110 -5 96 3 101 4 89 21
-11 14 -29 18 -93 18 -44 1 -85 5 -91 10 -8 6 -14 2 -17 -13z"/>
</g>
</svg>
